<svg aria-hidden="true" role="presentation" data-slug-id="azure" viewBox="0 0 256 256" xmlns="http://www.w3.org/2000/svg" fill="#a7a29a">
  <path d="M89.158 18.266h69.238L86.523 231.224a11.041 11.041 0 01-10.461 7.51H22.179a11.023 11.023 0 01-10.445-14.548l66.963-198.41a11.04 11.04 0 0110.461-7.51z"/>
  <path d="M189.77 161.104H79.976a5.083 5.083 0 00-3.468 8.8l70.552 65.847a11.091 11.091 0 007.567 2.983h62.167z"/>
  <path d="M177.592 25.764a11.023 11.023 0 00-10.444-7.498H89.984a11.024 11.024 0 0110.445 7.498l66.967 198.421a11.024 11.024 0 01-10.445 14.549h77.164a11.024 11.024 0 0010.444-14.549z"/>
</svg>