<svg xmlns="http://www.w3.org/2000/svg" viewBox="0 0 64 64" role="img" aria-labelledby="title">
  <title>Database</title>
  <path
    fill="#000"
    fill-rule="evenodd"
    clip-rule="evenodd"
    d="M32 6C18.745 6 8 9.806 8 14.5v35C8 54.194 18.745 58 32 58s24-3.806 24-8.5v-35C56 9.806 45.255 6 32 6z
       M32 9c12.15 0 21 3.31 21 5.5S44.15 20 32 20s-21-3.31-21-5.5S19.85 9 32 9z
       M32 28c-10.407 0-18.605-2.145-21-5.089v1.774c3.94 2.75 11.97 4.815 21 4.815s17.06-2.065 21-4.815v-1.774C50.605 25.855 42.407 28 32 28z
       M32 38c-10.407 0-18.605-2.145-21-5.089v1.774c3.94 2.75 11.97 4.815 21 4.815s17.06-2.065 21-4.815v-1.774C50.605 35.855 42.407 38 32 38z
       M32 48c-10.407 0-18.605-2.145-21-5.089v1.774c3.94 2.75 11.97 4.815 21 4.815s17.06-2.065 21-4.815v-1.774C50.605 45.855 42.407 48 32 48z"
  />
</svg>
